PathFileType	4	(X/Y/Z)	C:/Users/beibeiliu/ov580/test_trc/User2\sequence.10_training_dense_left.trc
DataRate	CameraRate	NumFrames	NumMarkers	Units	OrigDataRate	OrigDataStartFrame	OrigNumFrames
120	120	18	19	mm	120	303	484
Frame#	Time	ThumbCMC			ThumbMCP			ThumbIP			ThumbTip			IndexMCP			IndexPIP			IndexTip			MiddleMCP			MiddlePIP			MiddleTip			RingMCP			RingPIP			RingTip			PinkyMCP			PinkyPIP			PinkyTip			BackHand1			BackHand2			BackHand3	
		X0	Y0	Z0	X1	Y1	Z1	X2	Y2	Z2	X3	Y3	Z3	X4	Y4	Z4	X5	Y5	Z5	X6	Y6	Z6	X7	Y7	Z7	X8	Y8	Z8	X9	Y9	Z9	X10	Y10	Z10	X11	Y11	Z11	X12	Y12	Z12	X13	Y13	Z13	X14	Y14	Z14	X15	Y15	Z15	X16	Y16	Z16	X17	Y17	Z17	X18	Y18	Z18	
302	2.51667	-124.403	-29.156	144.942	-107.034	-50.4963	116.277	-105.497	-69.2323	91.1139	-120.579	-85.8046	65.6624	-147.344	-8.12623	69.3225	-148.335	-7.52671	41.9137	-150.078	-9.07878	9.65175	-166.64	-38.8663	58.3357	-151.177	-71.748	47.4749	-137.281	-92.6816	73.5359	-180.577	-54.6718	62.9164	-169.601	-83.3624	58.8955	-148.363	-93.5938	91.6306	-196.573	-64.4811	78.7206	-175.802	-89.558	73.192	-161.499	-95.4313	101.453	-195.689	-24.9882	124.152	-198.101	-21.3904	155.343	-162.212	-6.51241	139.791	
303	2.525	-126.597	-26.5068	147.238	-105.924	-44.9799	118.272	-105.596	-63.7169	91.1113	-115.811	-79.948	67.0741	-150.817	-4.95754	70.1662	-150.5	-3.76682	39.6919	-150.391	-3.20837	13.9698	-163.743	-32.8767	55.9077	-150.697	-66.3844	47.3699	-133.818	-86.1321	75.9496	-182.36	-48.9478	65.9102	-163.924	-73.9652	56.7497	-148.056	-87.7433	88.0485	-194.389	-57.2822	78.7506	-175.041	-87.192	71.7476	-161.206	-91.5256	96.8554	-195.161	-21.5922	120.605	-199.52	-17.3899	153.03	-164.402	-3.64012	140.244	
304	2.53333	-127.648	-22.5722	148.035	-104.296	-38.7969	120.633	-105.309	-53.3397	88.9487	-118.562	-66.2337	66.547	-148.323	4.18722	73.086	-148.193	8.36629	43.4806	-150.507	10.3847	17.1179	-164.52	-23.064	60.3773	-150.895	-50.8583	44.4979	-135.403	-78.4115	73.2968	-177.164	-39.4251	62.0033	-158.57	-65.0461	55.0828	-147.02	-79.4253	81.8463	-193.178	-50.3005	75.0684	-172.168	-73.763	66.6664	-157.458	-84.9329	92.4168	-193.716	-15.392	126.316	-194.154	-15.8633	155.655	-161.759	1.61383	142.406	
305	2.54167	-127.878	-18.1158	147.659	-109.52	-32.088	121.484	-103.135	-43.2881	85.3801	-117.172	-54.8056	61.3642	-146.079	17.449	74.8244	-148.916	22.8442	50.3811	-149.782	28.5133	19.4025	-165.888	-10.0332	63.4873	-149.263	-36.1784	42.5494	-132.558	-65.1114	68.0424	-179.969	-27.8289	63.1006	-165.741	-53.0611	50.102	-146.19	-68.6298	78.1446	-196.909	-40.3418	76.3563	-173.954	-63.1093	60.5189	-157.136	-76.3159	87.6865	-195.016	-13.2311	126.383	-199.756	-13.7357	155.245	-165.313	3.25528	147.007	
306	2.55	-129.583	-18.0493	148.492	-113.045	-28.9257	116.005	-108.842	-37.2514	78.9356	-119.53	-46.9594	56.981	-153.131	22.1254	76.85	-153.992	31.4941	48.9283	-155.19	38.3149	23.5617	-169.481	-1.49209	61.898	-155.499	-27.8129	39.9699	-138.037	-57.9748	63.6926	-185.06	-20.8211	60.636	-165.892	-45.9172	49.0636	-153.373	-63.9447	73.3369	-197.37	-31.3972	75.3344	-177.176	-55.3246	59.0667	-163.454	-71.392	81.7861	-196.512	-7.77972	125.55	-199.34	-12.2402	157.214	-169.173	5.14505	145.938	
307	2.55833	-128.761	-15.5393	144.161	-111.81	-28.7313	111.838	-114.302	-37.4376	76.8113	-129.628	-45.6219	52.4132	-158.726	25.4385	76.5515	-162.686	33.4535	49.7758	-166.691	40.3185	24.8695	-178.599	-0.728996	60.3819	-165.096	-29.092	36.7252	-148.752	-56.384	57.2599	-190.501	-16.844	60.3456	-175.282	-41.7223	46.9399	-162.004	-62.6429	70.0303	-206.108	-32.2002	73.0086	-187.026	-53.6089	57.2484	-168.924	-70.8078	81.9164	-201.741	-8.63326	127.114	-199.576	-10.6355	156.821	-168.096	7.93403	145.584	
308	2.56667	-135.211	-17.1757	135.369	-119.011	-31.559	106.521	-118.919	-43.0251	70.4701	-136.527	-52.9964	49.4542	-164.541	22.7519	71.5872	-167.745	33.4703	44.4791	-175.536	38.0656	20.0624	-186.752	-1.78081	58.8653	-175.565	-29.2705	35.2245	-161.439	-60.8325	52.3732	-201.938	-21.6407	59.7192	-189.268	-46.5269	45.9754	-168.292	-62.4225	68.2134	-216.688	-34.5993	77.2153	-197.088	-60.1846	59.4601	-178.531	-73.3744	78.575	-203.318	-6.12828	126.53	-203.379	-11.6319	157.237	-173.668	5.75865	139.883	
309	2.575	-138.815	-20.0707	128.639	-130.51	-37.7245	100.173	-132.848	-52.5837	65.3407	-153.115	-62.8193	45.2315	-171.986	14.478	66.0206	-179.487	20.7427	38.3169	-184.482	28.2787	13.3458	-192.729	-10.0801	54.7009	-185.087	-38.5	33.9043	-171.712	-70.2899	55.3451	-212.213	-28.7751	62.7749	-196.574	-54.823	48.1883	-176.787	-72.2576	75.6996	-221.011	-39.6142	75.7325	-206.106	-66.073	62.5208	-183.988	-76.7017	85.3272	-212.317	-8.39214	124.442	-204.058	-11.1293	158.274	-177.359	5.86018	132.926	
310	2.58333	-143.351	-24.492	124.197	-133.954	-47.1252	95.2477	-142.524	-65.4326	69.2814	-160.438	-80.0002	50.2831	-177.901	3.09702	58.092	-187.192	5.22778	31.8211	-195.532	8.38796	6.41355	-201.725	-24.0875	52.3978	-197.395	-57.2769	36.6893	-177.364	-83.2685	61.5404	-219.66	-40.5475	63.3833	-206.755	-69.1739	52.0085	-186.525	-84.2254	80.9352	-229.857	-51.3274	78.8607	-212.934	-80.1121	70.8649	-190.77	-83.9881	90.814	-217.187	-12.9598	122.294	-204.527	-8.57225	152.193	-177.187	0.861203	130.776	
311	2.59167	-147.67	-30.3831	124.873	-142.71	-57.5811	96.7379	-146.322	-81.9875	70.5429	-171.377	-94.4931	59.7735	-189.278	-11.835	53.4325	-193.633	-11.4703	27.8781	-198.794	-9.01922	1.98101	-207.874	-37.1428	52.881	-205.726	-74.1911	42.7568	-181.876	-93.5766	70.903	-224.443	-53.7378	65.8371	-214.672	-85.4568	60.2727	-191.101	-95.3915	85.7125	-233.431	-63.5546	82.897	-216.198	-90.9398	78.621	-194.189	-94.669	101.687	-220.683	-19.3492	120.183	-206.582	-10.8789	152.551	-181.551	-1.66363	120.418	
312	2.6	-148.095	-34.9829	119.076	-146.27	-65.3375	99.0245	-154.933	-92.2329	79.0177	-179.934	-107.97	68.8368	-191.69	-22.9422	50.8985	-198.806	-26.9843	23.4634	-209.318	-28.3509	-1.49152	-217.156	-50.7491	57.0931	-205.271	-87.4302	47.6107	-184.131	-100.871	79.2417	-229.565	-67.0041	69.7436	-216.507	-95.2208	66.3559	-190.538	-101.771	91.9401	-237.896	-75.2739	89.2112	-217.821	-101.259	89.5808	-194.779	-103.415	109.017	-223.177	-23.7929	117.885	-211.979	-13.2611	151.184	-184.897	-8.01069	121.869	
313	2.60833	-148.752	-37.8327	123.125	-146.624	-69.3282	104.299	-161.134	-100.739	80.9252	-182.115	-116.51	73.6173	-193.528	-30.4445	53.7677	-203.407	-35.9094	28.1556	-211.333	-38.5447	0.54124	-216.254	-56.9553	56.3933	-213.313	-95.3342	54.4328	-186.805	-106.096	84.0161	-231.461	-73.9141	72.1667	-221.636	-103.968	75.1141	-192.994	-108.133	98.1725	-239.573	-77.2639	96.5823	-220.825	-106.939	94.1293	-195.24	-104.117	113.479	-223.52	-25.0087	116.247	-214.382	-12.2178	150.696	-187.008	-10.1268	119.165	
314	2.61667	-151.561	-37.329	124.588	-149.091	-70.7548	102.622	-157.775	-99.3242	83.0086	-182.386	-114.351	76.6254	-195.29	-29.7344	55.6142	-203.851	-34.6838	28.2275	-210.905	-35.9983	0.354266	-218.817	-56.4958	60.0236	-211.735	-92.6215	52.8361	-188.075	-104.545	82.9877	-234.535	-71.3554	75.4812	-219.883	-99.2803	70.148	-194.882	-107.94	94.8206	-240.032	-77.8468	93.008	-225.374	-105.791	93.1723	-197.275	-106.651	113.023	-226.79	-28.1046	118.575	-215.838	-15.107	152.934	-191.622	-11.9125	120.892	
315	2.625	-150.302	-36.565	125.708	-147.781	-67.0611	101.902	-158.624	-92.2163	80.0043	-184.415	-107.337	65.5386	-194.013	-21.0398	52.0154	-199.231	-20.7205	27.1245	-206.766	-20.368	1.97171	-215.923	-50.2231	54.3295	-208.114	-85.6515	48.0849	-189.713	-99.315	80.1268	-230.955	-63.2543	70.3757	-218.947	-94.0263	67.1379	-197.204	-103.037	92.4767	-240.145	-70.6932	89.5285	-222.415	-99.486	85.9585	-198.081	-99.595	109.285	-221.401	-22.6537	120.922	-215.999	-15.0794	153.678	-189.442	-8.41447	125.358	
316	2.63333	-151.744	-36.0626	126.379	-149.903	-61.2404	98.3857	-157.842	-84.9444	69.016	-180.564	-96.3251	62.5616	-189.935	-10.5802	61.1009	-199.326	-8.31456	34.4221	-203.972	-2.70181	3.48849	-213.077	-36.9834	55.3769	-210.994	-72.4905	45.2653	-189.374	-91.8276	75.4374	-231.752	-55.1837	66.8567	-221.166	-83.4572	60.7141	-199.963	-96.2894	86.5978	-243.555	-63.7591	84.506	-226.581	-91.6178	79.5871	-202.135	-94.8958	98.5179	-220.603	-18.5556	124.553	-212.05	-12.7267	156.809	-184.629	-4.32434	127.299	
317	2.64167	-148.112	-33.5895	125.739	-146.361	-58.0633	98.9185	-156.404	-78.1128	67.5182	-180.954	-88.9767	53.2891	-193.066	-2.54352	60.9862	-198.712	1.45564	37.4265	-208.715	7.54278	8.01137	-216.47	-28.3444	59.0524	-206.396	-62.0667	40.6886	-193.27	-85.9407	67.3704	-231.918	-46.4159	66.5289	-220.479	-71.8482	55.556	-198.721	-88.7235	81.3455	-242.576	-53.4587	85.3081	-227.103	-83.1184	73.3682	-201.723	-91.9428	94.8961	-222.556	-14.8747	127.658	-211.52	-14.6815	158.641	-184.642	-4.94961	130.656	
318	2.65	-147.189	-31.9504	126.546	-144.493	-54.9782	98.6044	-155.866	-73.6622	65.9185	-177.504	-83.3633	54.0897	-189.964	2.13729	61.1335	-192.171	7.65062	37.2792	-203.813	13.1344	13.2943	-210.388	-24.0452	53.3682	-209.879	-56.2957	39.8662	-189.663	-81.59	63.759	-226.826	-36.8975	67.3629	-219.186	-67.4787	52.9392	-196.364	-85.2642	79.378	-241.744	-49.3937	84.8437	-226.034	-75.606	69.5369	-206.232	-88.5243	88.0969	-220.203	-14.2995	128.702	-210.368	-15.0299	160.072	-183.132	-1.609	134.688	
319	2.65833	-144.975	-32.6962	125.35	-139.353	-55.4167	98.2076	-150.157	-73.1505	64.756	-171.896	-81.7001	52.8167	-180.905	4.31581	60.5987	-187.915	7.10053	38.8058	-197.82	13.6964	11.3508	-208.931	-22.4438	52.9514	-200.329	-55.0461	36.484	-185.748	-80.6149	59.5757	-222.241	-35.8957	62.8416	-215.362	-62.7761	50.922	-194.977	-84.1753	74.4893	-234.071	-45.06	81.1655	-226.558	-74.8725	66.7797	-201.824	-89.2324	85.8759	-217.483	-13.9417	121.82	-207.404	-13.8834	157.975	-182.111	-2.02362	134.068	
